<?xml version="1.0" standalone="no"?>
<!DOCTYPE svg PUBLIC "-//W3C//DTD SVG 20010904//EN"
 "http://www.w3.org/TR/2001/REC-SVG-20010904/DTD/svg10.dtd">
<svg version="1.0" xmlns="http://www.w3.org/2000/svg"
 width="1025.000000pt" height="1025.000000pt" viewBox="0 0 1025.000000 1025.000000"
 preserveAspectRatio="xMidYMid meet">
<metadata>
Created by potrace 1.14, written by Peter Selinger 2001-2017
</metadata>
<g transform="translate(0.000000,1025.000000) scale(0.100000,-0.100000)"
fill="#000000" stroke="none">
<path d="M7281 6035 c-116 -33 -183 -94 -218 -198 -16 -47 -18 -113 -21 -642
-3 -629 0 -680 44 -772 31 -65 76 -104 151 -134 52 -21 75 -23 213 -24 131 0
163 3 209 20 64 24 135 83 160 134 44 88 46 116 46 736 0 620 -2 648 -46 736
-25 50 -100 114 -157 134 -67 25 -307 30 -381 10z m364 -54 c78 -35 122 -84
148 -166 22 -69 22 -80 22 -660 0 -580 0 -591 -22 -660 -26 -82 -69 -131 -148
-167 -44 -20 -65 -23 -185 -23 -165 0 -221 16 -286 80 -79 79 -78 70 -82 730
-3 625 0 675 46 760 55 100 148 137 337 132 98 -3 129 -7 170 -26z"/>
<path d="M7318 5957 c-68 -20 -116 -61 -147 -126 l-26 -56 0 -620 0 -620 27
-57 c49 -105 140 -145 313 -136 150 8 226 59 262 176 16 52 18 110 18 637 0
527 -2 585 -18 637 -21 71 -67 125 -127 151 -57 26 -231 34 -302 14z m247 -41
c62 -19 110 -66 132 -130 16 -47 18 -101 18 -626 0 -518 -2 -581 -17 -631 -34
-110 -124 -157 -278 -146 -130 9 -190 54 -216 166 -20 83 -20 1131 0 1215 28
118 94 163 247 165 36 1 87 -6 114 -13z"/>
<path d="M7355 5876 c-48 -18 -92 -67 -102 -116 -5 -19 -8 -298 -8 -620 l0
-585 25 -44 c38 -68 77 -86 185 -86 76 0 96 3 126 23 47 29 70 78 80 172 10
99 10 985 0 1076 -16 140 -61 185 -190 191 -50 2 -90 -2 -116 -11z m181 -45
c34 -16 45 -28 60 -67 18 -46 19 -86 19 -609 0 -523 -1 -563 -19 -609 -15 -39
-26 -51 -60 -67 -84 -38 -182 -16 -221 51 -19 34 -20 53 -23 570 -2 294 0 563
3 597 4 39 15 75 29 95 37 57 134 74 212 39z"/>
<path d="M384 6027 c-2 -7 -3 -403 -2 -882 l3 -870 25 0 25 0 3 750 c2 413 0
809 -3 880 -6 120 -8 131 -26 132 -11 1 -22 -4 -25 -10z"/>
<path d="M490 5155 l0 -886 23 3 c22 3 22 4 27 223 l5 220 114 253 c62 139
115 251 117 249 2 -2 75 -214 162 -473 156 -460 160 -469 187 -472 20 -3 26 0
23 10 -3 7 -81 238 -173 513 l-169 500 158 363 c86 199 154 367 151 372 -3 6
-15 10 -25 10 -15 0 -68 -117 -281 -615 -169 -395 -267 -615 -276 -615 -12 0
-13 20 -8 113 3 61 7 337 8 612 l2 500 -22 3 -23 3 0 -886z"/>
<path d="M590 5808 c0 -128 -9 -375 -20 -548 -10 -173 -17 -317 -14 -319 11
-11 29 31 142 324 66 171 163 411 216 535 53 123 96 228 96 232 0 4 -12 6 -26
5 -25 -2 -33 -19 -124 -239 -54 -130 -130 -328 -170 -440 -39 -111 -76 -207
-81 -213 -13 -13 -12 8 11 244 15 153 20 262 18 426 -3 220 -3 220 -25 223
l-23 3 0 -233z"/>
<path d="M1182 6027 c-5 -7 -80 -175 -166 -374 l-156 -361 173 -509 c155 -458
174 -508 195 -511 14 -2 22 2 22 11 0 8 -74 234 -165 502 -91 269 -165 494
-165 502 0 7 70 175 155 372 85 197 155 362 155 367 0 14 -37 15 -48 1z"/>
<path d="M1395 6028 c-3 -7 -4 -404 -3 -883 l3 -870 23 -3 22 -3 -2 883 c-3
832 -4 883 -21 886 -9 2 -19 -2 -22 -10z"/>
<path d="M1495 6028 c-3 -7 -4 -404 -3 -883 l3 -870 23 -3 22 -3 -2 883 c-3
832 -4 883 -21 886 -9 2 -19 -2 -22 -10z"/>
<path d="M1595 6027 c-3 -6 -4 -403 -3 -882 l3 -870 25 0 25 0 0 879 0 879
-23 3 c-12 2 -25 -2 -27 -9z"/>
<path d="M1890 5154 l0 -885 23 3 22 3 3 858 2 857 205 0 204 0 5 -32 c27
-160 166 -1423 166 -1502 0 -15 9 -17 67 -14 l67 3 33 330 c17 182 56 529 85
772 l53 443 208 0 207 0 0 -861 0 -860 23 3 22 3 0 880 0 880 -247 2 c-136 1
-250 -2 -252 -6 -10 -16 -108 -863 -139 -1201 l-32 -345 -28 -3 c-17 -2 -27 1
-27 10 1 54 -71 753 -113 1108 l-52 435 -253 3 -252 2 0 -886z"/>
<path d="M3542 6032 c-10 -7 -12 -190 -10 -883 l3 -874 23 -3 22 -3 0 885 c0
916 1 902 -38 878z"/>
<path d="M3635 6028 c-3 -7 -4 -404 -3 -883 l3 -870 23 -3 22 -3 0 435 0 436
250 0 250 0 2 -432 3 -433 25 0 25 0 3 740 c2 407 0 804 -3 883 -7 139 -8 143
-29 140 l-21 -3 -3 -422 -2 -423 -250 0 -250 0 -2 422 c-3 394 -4 423 -21 426
-9 2 -19 -2 -22 -10z"/>
<path d="M3737 6034 c-4 -4 -7 -187 -7 -406 l0 -398 200 0 200 0 0 405 c0 239
-4 405 -9 405 -42 0 -41 6 -41 -386 0 -292 -3 -374 -12 -374 -7 -1 -46 -3 -86
-7 -40 -3 -101 -2 -137 2 l-65 7 -2 376 c-3 331 -5 377 -18 380 -9 1 -19 0
-23 -4z"/>
<path d="M4285 6027 c-3 -6 -4 -403 -3 -882 l3 -870 25 0 25 0 0 879 0 879
-23 3 c-12 2 -25 -2 -27 -9z"/>
<path d="M4733 6032 c-10 -6 -223 -1671 -223 -1742 0 -32 44 -23 49 10 2 14
49 399 105 855 l101 830 187 3 186 2 6 -37 c3 -21 49 -391 101 -823 52 -432
97 -802 101 -822 5 -32 10 -38 30 -38 13 0 24 2 24 4 0 14 -211 1725 -215
1743 -5 21 -7 22 -223 22 -119 1 -222 -2 -229 -7z"/>
<path d="M5574 6027 c-2 -7 -3 -403 -2 -882 l3 -870 175 -3 c494 -8 595 56
623 396 13 167 1 296 -36 369 -27 52 -81 106 -116 118 -30 9 -26 19 22 50 98
61 122 148 115 410 -6 201 -21 254 -91 323 -57 56 -126 81 -256 93 -149 13
-431 11 -437 -4z m508 -48 c103 -22 159 -65 200 -154 22 -47 23 -62 23 -255 0
-201 -1 -206 -27 -262 -25 -55 -81 -108 -129 -123 -27 -9 -23 -21 10 -33 41
-14 109 -78 133 -125 41 -80 46 -377 8 -507 -21 -75 -64 -126 -136 -161 l-69
-34 -237 -3 -238 -4 0 836 0 836 205 0 c113 0 228 -5 257 -11z"/>
<path d="M5670 5156 l0 -796 163 0 c246 0 329 22 387 101 40 56 52 126 53 308
0 190 -14 251 -73 315 -22 24 -58 51 -80 61 -22 10 -40 21 -40 24 0 3 23 18
50 34 59 32 104 95 119 168 14 63 14 309 1 380 -15 77 -53 128 -125 164 -59
29 -61 30 -257 33 l-198 4 0 -796z m440 714 c33 -18 52 -38 70 -75 24 -48 25
-58 25 -235 0 -208 -9 -251 -68 -308 -53 -51 -100 -62 -268 -62 l-149 0 0 356
0 356 173 -4 c162 -3 175 -5 217 -28z m5 -765 c35 -21 56 -45 74 -80 25 -48
26 -54 26 -260 0 -206 -1 -211 -25 -255 -17 -29 -41 -53 -70 -70 -43 -24 -55
-25 -222 -28 l-178 -4 0 367 0 367 173 -4 c173 -3 174 -3 222 -33z"/>
<path d="M5770 5546 l0 -316 108 0 c132 0 176 12 223 59 50 50 62 112 57 299
-5 238 -31 265 -255 270 l-133 4 0 -316z m274 250 c53 -34 61 -59 64 -207 6
-231 -18 -289 -131 -309 -31 -6 -69 -9 -84 -6 -15 2 -38 5 -50 5 l-23 1 0 263
c0 145 3 267 8 271 13 15 189 0 216 -18z"/>
<path d="M5770 4775 l0 -327 143 4 c160 3 194 15 232 78 18 31 20 55 23 225
l3 190 -28 54 c-42 82 -74 95 -240 99 l-133 4 0 -327z m277 260 c60 -36 68
-61 71 -256 5 -261 -9 -282 -193 -283 l-100 -1 -3 270 c-1 148 0 276 3 284 8
21 181 10 222 -14z"/>
<path d="M8100 5154 l0 -885 23 3 22 3 3 858 2 859 243 -5 c267 -4 292 -9 358
-65 88 -75 102 -152 96 -505 -2 -152 -9 -266 -16 -288 -19 -61 -54 -102 -108
-129 -29 -14 -52 -30 -52 -35 -1 -10 159 -596 180 -662 8 -25 16 -33 35 -33
13 0 24 2 24 5 0 2 -40 152 -90 333 -49 181 -90 332 -90 334 0 3 19 17 43 32
23 15 53 42 66 61 50 74 55 103 59 382 5 354 -10 444 -89 522 -79 80 -185 100
-526 101 l-183 0 0 -886z"/>
<path d="M9112 6032 c-10 -7 -12 -190 -10 -883 l3 -874 23 -3 22 -3 0 885 c0
916 1 902 -38 878z"/>
<path d="M9212 6032 c-10 -7 -12 -190 -10 -883 l3 -874 23 -3 22 -3 0 206 0
206 111 252 c61 139 116 261 121 271 9 16 40 -68 168 -446 87 -256 161 -471
164 -477 10 -16 46 -14 46 3 0 7 -76 237 -169 511 l-170 497 154 355 c85 195
157 363 160 374 6 18 3 20 -21 17 -28 -3 -37 -23 -289 -612 -143 -335 -265
-611 -272 -613 -9 -3 -10 141 -6 611 6 648 7 634 -35 608z"/>
<path d="M9307 6033 c-4 -3 -7 -126 -7 -272 0 -146 -7 -389 -16 -539 -15 -249
-15 -296 2 -280 3 3 61 149 129 324 68 176 166 419 218 542 52 122 94 223 94
223 -1 1 -12 3 -25 4 -16 2 -27 -6 -36 -24 -36 -70 -188 -450 -257 -645 -76
-212 -85 -234 -93 -225 -2 2 5 87 15 189 13 127 18 267 19 448 0 248 -1 262
-18 262 -10 0 -22 -3 -25 -7z"/>
<path d="M9881 5998 c-10 -24 -82 -190 -160 -370 -77 -179 -141 -332 -141
-339 0 -6 77 -237 170 -512 94 -275 170 -501 170 -503 0 -2 11 -4 25 -4 14 0
25 4 25 9 0 4 -76 233 -170 509 l-169 500 159 368 c87 202 157 371 154 376 -3
4 -14 8 -25 8 -14 0 -25 -13 -38 -42z"/>
<path d="M1974 5935 c3 -9 9 -387 12 -840 l7 -825 25 0 25 0 -6 728 c-4 400
-10 769 -14 820 l-6 92 124 0 125 0 53 -444 c29 -245 67 -593 85 -773 l31
-328 152 -3 152 -3 5 43 c3 24 20 185 36 358 17 173 53 501 80 728 28 226 50
414 50 417 0 3 54 5 119 5 l120 0 -6 -820 -6 -820 22 0 c12 0 23 6 26 13 2 6
6 384 8 840 l5 827 -164 0 c-162 0 -164 0 -169 -22 -20 -93 -165 -1425 -165
-1517 0 -7 -38 -11 -110 -11 l-109 0 -5 33 c-3 17 -17 163 -31 322 -15 160
-51 492 -81 738 -30 247 -54 451 -54 453 0 2 -77 4 -171 4 -149 0 -170 -2
-165 -15z"/>
<path d="M4795 5918 c-8 -46 -185 -1605 -185 -1628 0 -21 34 -29 45 -11 3 5
17 110 30 233 14 123 28 238 31 256 l5 32 234 0 c181 0 235 -3 235 -12 0 -20
50 -471 56 -495 4 -23 37 -32 48 -15 3 5 -38 377 -89 828 -52 450 -95 825 -95
832 0 9 -38 12 -155 12 l-154 0 -6 -32z m297 -253 c34 -296 88 -796 88 -812 0
-10 -53 -13 -230 -13 l-230 0 6 43 c2 23 20 182 39 352 19 171 44 392 56 493
l22 183 111 -3 110 -3 28 -240z"/>
<path d="M4875 5848 c-4 -22 -95 -930 -95 -956 0 -9 42 -12 175 -12 l175 0 -5
38 c-3 20 -14 136 -26 257 -11 121 -31 326 -44 455 -14 129 -25 235 -25 237 0
2 -34 3 -75 3 -69 0 -75 -2 -80 -22z m119 -65 c10 -80 76 -799 76 -832 l0 -31
-121 0 -120 0 5 43 c4 23 22 222 42 442 19 220 37 406 39 413 3 6 20 12 39 12
33 0 34 -1 40 -47z"/>
<path d="M8200 5110 l0 -841 23 3 22 3 3 363 2 362 149 0 150 0 15 -52 c8 -29
51 -183 96 -343 44 -159 85 -300 90 -312 10 -24 50 -32 50 -10 0 9 -174 641
-195 708 -4 13 5 19 39 28 59 15 110 60 133 119 16 41 18 80 18 322 0 308 -5
343 -61 409 -55 63 -96 73 -331 79 l-203 4 0 -842z m421 775 c56 -20 77 -40
103 -95 18 -41 21 -68 24 -285 7 -434 -8 -455 -330 -455 l-168 0 0 425 0 425
164 0 c121 0 175 -4 207 -15z"/>
<path d="M8300 5475 l0 -387 148 4 c165 4 198 14 229 71 16 28 18 63 18 302 0
250 -1 273 -20 310 -34 67 -68 79 -232 83 l-143 4 0 -387z m286 322 c54 -28
59 -55 59 -333 0 -272 -3 -290 -54 -315 -14 -7 -74 -14 -133 -17 l-108 -4 0
347 0 347 103 -4 c69 -3 112 -9 133 -21z"/>
<path d="M2064 5808 c12 -145 19 -426 25 -963 l6 -570 25 0 25 0 3 255 c3 227
-19 1038 -33 1228 l-6 72 41 0 c22 0 40 -1 40 -2 0 -2 20 -188 44 -414 25
-226 59 -574 77 -772 l33 -362 242 0 243 0 5 33 c3 17 17 163 31 322 26 296
112 1132 120 1173 4 18 12 22 40 22 l35 0 0 -57 c0 -32 -7 -238 -15 -458 -9
-220 -14 -544 -13 -720 l3 -320 23 -3 22 -3 0 363 c0 200 7 532 15 738 8 206
15 403 15 438 l0 62 -80 0 -79 0 -6 -32 c-12 -77 -98 -861 -128 -1173 l-32
-340 -198 -3 c-183 -2 -197 -1 -197 15 0 43 -65 675 -110 1077 -28 241 -50
442 -50 447 0 5 -38 9 -85 9 l-86 0 5 -62z"/>
<path d="M3732 4688 l3 -413 22 -3 23 -3 2 393 3 393 147 3 148 3 2 -393 3
-393 23 -3 22 -3 0 415 0 416 -200 0 -200 0 2 -412z"/>
<path d="M677 4885 l-87 -204 0 -206 0 -206 23 3 c22 3 22 5 27 208 l5 205 55
132 c30 73 57 133 60 133 3 0 56 -153 118 -340 108 -322 115 -340 138 -340 13
0 24 4 24 9 0 11 -259 781 -268 798 -5 8 -42 -67 -95 -192z"/>
<path d="M9472 5070 c-5 -14 -47 -110 -91 -214 l-81 -189 2 -196 c3 -195 3
-196 26 -199 l22 -3 0 193 0 193 61 148 c34 81 65 144 69 140 4 -4 56 -156
116 -337 60 -180 115 -331 122 -333 6 -3 19 -3 27 1 12 4 -10 79 -119 398 -73
216 -135 400 -138 408 -4 11 -8 9 -16 -10z"/>
<path d="M8300 4615 l0 -345 25 0 25 0 0 320 0 320 63 0 63 0 86 -317 c68
-255 88 -319 102 -321 10 -2 22 0 26 5 5 4 -33 159 -84 343 l-93 335 -106 3
-107 3 0 -346z"/>
<path d="M4766 4748 c-2 -7 -14 -98 -26 -203 -12 -104 -24 -209 -27 -232 -5
-41 -4 -43 20 -43 30 0 28 -9 52 235 8 83 18 165 21 183 l5 32 143 0 144 0 12
-117 c38 -357 32 -328 60 -328 30 0 30 -22 -5 267 -14 115 -25 210 -25 213 0
3 -83 5 -185 5 -140 0 -187 -3 -189 -12z"/>
</g>
</svg>
