<svg xmlns="http://www.w3.org/2000/svg" width="683" height="365" viewBox="0 0 683 365" version="1.1">
  <path
    d="M 480.994 115.874 C 472.810 118.559, 468.102 123.279, 465.903 131 C 464.158 137.123, 464.085 214.571, 465.817 220.599 C 469.051 231.848, 476.041 236.264, 491.500 236.823 C 503.792 237.268, 511.217 234.986, 515.880 229.329 C 521.232 222.837, 521.500 220.266, 521.500 175.500 C 521.500 138.793, 521.314 133.967, 519.723 129.411 C 517.807 123.922, 514.537 120.271, 509 117.437 C 505.123 115.452, 485.599 114.363, 480.994 115.874 M 13 176 C 13 235.333, 13.022 236, 15 236 C 16.978 236, 17 235.333, 17 176 C 17 116.667, 16.978 116, 15 116 C 13.022 116, 13 116.667, 13 176 M 19.459 117.250 C 19.196 117.938, 19.098 144.825, 19.240 177 C 19.500 235.500, 19.500 235.500, 21.750 235.820 C 23.994 236.138, 24 236.098, 23.996 221.820 C 23.992 207.500, 23.992 207.500, 31.660 190.247 C 35.877 180.758, 39.477 173.144, 39.660 173.327 C 40.018 173.684, 61 234.903, 61 235.589 C 61 235.815, 61.900 236, 63 236 C 64.259 236, 64.980 235.351, 64.946 234.250 C 64.916 233.287, 59.819 217.678, 53.620 199.563 C 42.349 166.626, 42.349 166.626, 53.174 141.643 C 59.128 127.903, 64 116.512, 64 116.330 C 64 116.149, 62.939 116, 61.642 116 C 59.493 116, 57.937 119.162, 44.059 151.750 C 35.685 171.412, 27.572 190.200, 26.031 193.500 C 23.227 199.500, 23.227 199.500, 23.772 157.750 C 24.317 116, 24.317 116, 22.127 116 C 20.923 116, 19.722 116.563, 19.459 117.250 M 25.673 147.750 C 25.322 165.213, 24.732 182.148, 24.363 185.385 C 23.823 190.124, 23.958 191.181, 25.058 190.814 C 26.414 190.362, 27.612 187.608, 36.505 164.500 C 39.045 157.900, 44.471 144.562, 48.562 134.860 C 52.653 125.158, 56 116.914, 56 116.541 C 56 116.167, 55.017 116.005, 53.816 116.180 C 52.038 116.441, 50.551 119.096, 45.800 130.500 C 42.591 138.200, 37.699 150.800, 34.927 158.500 C 28.779 175.580, 27.777 177.830, 28.470 173 C 29.876 163.190, 30.984 144.855, 30.991 131.250 C 31 116, 31 116, 28.656 116 C 26.312 116, 26.312 116, 25.673 147.750 M 64.010 122.638 C 62.354 126.289, 61 129.415, 61 129.584 C 61 129.753, 57.396 138.077, 52.991 148.083 C 45.979 164.010, 45.094 166.662, 45.885 169.387 C 47.518 175.010, 67.763 233.807, 68.448 234.916 C 69.397 236.451, 73.326 236.299, 72.747 234.750 C 71.153 230.477, 54.747 182.006, 52.525 175 C 49.828 166.500, 49.828 166.500, 60.414 142.055 C 66.236 128.610, 71 117.248, 71 116.805 C 71 116.362, 70.104 116, 69.010 116 C 67.525 116, 66.255 117.686, 64.010 122.638 M 81 176.070 C 81 236.139, 81 236.139, 83.250 235.820 C 85.500 235.500, 85.500 235.500, 85.758 175.750 C 86.016 116, 86.016 116, 83.508 116 C 81 116, 81 116, 81 176.070 M 88 175.930 C 88 234.869, 88.037 236, 89.955 236 C 91.374 236, 92.069 235.110, 92.491 232.750 C 92.810 230.963, 92.943 204.075, 92.786 173 C 92.500 116.500, 92.500 116.500, 90.250 116.180 C 88 115.861, 88 115.861, 88 175.930 M 95 176 C 95 235.333, 95.022 236, 97 236 C 98.978 236, 99 235.333, 99 176 C 99 116.667, 98.978 116, 97 116 C 95.022 116, 95 116.667, 95 176 M 115 176 C 115 235.333, 115.022 236, 117 236 C 118.977 236, 119 235.333, 119 178 C 119 120, 119 120, 132.421 120 C 148.045 120, 146.015 117.662, 148.487 138.500 C 149.336 145.650, 150.461 155.100, 150.988 159.500 C 152.998 176.290, 155.371 198.466, 156.498 211 C 157.797 225.436, 157.606 225, 162.619 225 C 165.270 225, 167.242 224.496, 167.507 223.750 C 167.752 223.063, 168.872 213.050, 169.997 201.500 C 171.121 189.950, 173.363 169.700, 174.979 156.500 C 176.594 143.300, 178.218 129.688, 178.587 126.250 C 179.258 120, 179.258 120, 192.621 120 C 205.984 120, 205.984 120, 206.242 177.750 C 206.500 235.500, 206.500 235.500, 208.750 235.820 C 211 236.139, 211 236.139, 211 176.070 L 211 116 193.567 116 C 177.842 116, 176.081 116.171, 175.584 117.750 C 174.652 120.707, 167.696 181.258, 166.020 201 C 164.465 219.310, 164.164 221, 162.455 221 C 161.426 221, 161 219.838, 161 217.036 C 161 214.856, 160.548 208.668, 159.995 203.286 C 158.644 190.134, 155.016 157.180, 153.963 148.500 C 153.497 144.650, 152.630 137.225, 152.037 132 C 150.008 114.105, 152.335 116, 132.389 116 L 115 116 115 176 M 226.459 117.250 C 226.196 117.938, 226.098 144.825, 226.240 177 C 226.500 235.500, 226.500 235.500, 228.750 235.820 C 231 236.139, 231 236.139, 231 176.070 C 231 116.357, 230.988 116, 228.969 116 C 227.851 116, 226.722 116.563, 226.459 117.250 M 233 176.070 C 233 236.139, 233 236.139, 235.250 235.820 C 237.500 235.500, 237.500 235.500, 237.765 206.250 C 238.030 177, 238.030 177, 254.515 177 C 271 177, 271 177, 271 206.500 C 271 235.333, 271.045 236, 273 236 C 274.978 236, 275 235.333, 275 176 C 275 116.667, 274.978 116, 273 116 C 271.047 116, 271 116.667, 271 144.500 C 271 173, 271 173, 254.500 173 C 238 173, 238 173, 238 144.500 C 238 116, 238 116, 235.500 116 C 233 116, 233 116, 233 176.070 M 240 143.430 C 240 171, 240 171, 254 171 C 268 171, 268 171, 268 143.500 C 268 116.667, 267.952 116, 266 116 C 264.052 116, 264 116.667, 264 141.500 C 264 167, 264 167, 254.250 167 C 244.500 167.001, 244.500 167.001, 244.500 141.750 C 244.500 116.500, 244.500 116.500, 242.250 116.180 C 240 115.861, 240 115.861, 240 143.430 M 277.242 175.750 C 277.500 235.500, 277.500 235.500, 279.750 235.820 C 282 236.139, 282 236.139, 282 176.070 C 282 116, 282 116, 279.492 116 C 276.984 116, 276.984 116, 277.242 175.750 M 307 116.999 C 307 118.233, 300.500 172.079, 299.033 183 C 297.509 194.341, 294.213 221.627, 293.446 229.250 C 292.806 235.614, 292.885 236, 294.822 236 C 296.524 236, 296.980 235.183, 297.473 231.250 C 297.800 228.637, 298.501 223.125, 299.030 219 C 299.558 214.875, 301.594 198.225, 303.552 182 C 305.511 165.775, 307.988 145.686, 309.057 137.357 C 310.125 129.028, 311 121.716, 311 121.107 C 311 120.358, 314.973 120, 323.296 120 C 335.591 120, 335.591 120, 337.880 138.750 C 342.507 176.653, 347.015 213.737, 348.061 222.500 C 349.607 235.448, 349.768 236, 352.019 236 C 353.109 236, 354 235.469, 354 234.820 C 354 233.712, 343.341 146.731, 340.665 126 C 339.439 116.500, 339.439 116.500, 323.220 116.225 C 312.393 116.042, 307 116.299, 307 116.999 M 365 176.094 L 365 236.187 383.750 235.824 C 400.133 235.507, 403.072 235.198, 407.033 233.383 C 416.629 228.983, 420.138 220.825, 420.231 202.695 C 420.304 188.452, 419.061 183.929, 413.638 178.696 C 409.414 174.621, 409.414 174.621, 413.077 171.312 C 418.253 166.635, 419.268 162.070, 418.848 145.363 C 418.532 132.790, 418.267 131.085, 416 127.039 C 410.924 117.981, 404.633 116, 380.951 116 L 365 116 365 176.094 M 536.625 119.125 C 535.820 123.149, 535.803 232.323, 536.607 234.418 C 536.941 235.288, 538.066 236, 539.107 236 C 540.943 236, 541 234.241, 541 178 C 541 120, 541 120, 555.557 120 C 563.564 120, 572.065 120.491, 574.450 121.092 C 579.541 122.374, 584.297 126.942, 585.808 132 C 587.442 137.473, 588.159 157.459, 587.124 168.716 C 586.064 180.239, 584.420 183.624, 578.520 186.424 C 576.584 187.342, 575 188.276, 575 188.500 C 575 188.886, 586.488 230.594, 587.602 234.250 C 588.206 236.232, 592.023 236.671, 591.957 234.750 C 591.933 234.063, 589.299 223.841, 586.102 212.036 C 580.290 190.573, 580.290 190.573, 584.034 187.860 C 590.527 183.157, 591.500 178.874, 591.500 155 C 591.500 131.497, 590.632 127.611, 584.058 121.671 C 578.902 117.013, 573.457 116, 553.576 116 C 537.250 116, 537.250 116, 536.625 119.125 M 605 176 C 605 235.333, 605.022 236, 607 236 C 608.978 236, 609 235.333, 609 176 C 609 116.667, 608.978 116, 607 116 C 605.022 116, 605 116.667, 605 176 M 611.487 117.176 C 611.209 117.904, 611.098 144.825, 611.240 177 C 611.497 234.747, 611.526 235.500, 613.500 235.500 C 615.390 235.500, 615.531 234.644, 616.068 220 C 616.635 204.500, 616.635 204.500, 623.701 189.200 C 627.587 180.785, 630.965 173.702, 631.206 173.460 C 631.448 173.219, 633.820 179.429, 636.478 187.261 C 651.820 232.466, 653.171 236, 655.112 236 C 656.151 236, 657 235.589, 657 235.087 C 657 234.585, 651.837 218.987, 645.526 200.424 C 634.052 166.675, 634.052 166.675, 643.635 144.587 C 648.906 132.439, 653.851 121.037, 654.623 119.250 C 655.986 116.095, 655.957 116, 653.620 116 C 652.297 116, 650.987 116.563, 650.709 117.250 C 648.269 123.293, 615.698 198.602, 615.382 198.933 C 615.154 199.170, 615.088 180.729, 615.234 157.952 C 615.483 119.160, 615.389 116.518, 613.747 116.196 C 612.783 116.007, 611.766 116.448, 611.487 117.176 M 617.662 145.250 C 617.307 161.338, 616.724 178.213, 616.365 182.750 C 615.925 188.326, 616.059 191, 616.779 191 C 617.365 191, 620.867 183.238, 624.561 173.750 C 628.255 164.262, 634.871 147.950, 639.263 137.500 C 643.654 127.050, 647.480 117.898, 647.764 117.162 C 648.126 116.227, 647.568 115.926, 645.914 116.162 C 643.897 116.450, 642.602 118.721, 637.165 131.500 C 633.656 139.750, 628.351 153.250, 625.377 161.500 C 620.045 176.290, 619.978 176.409, 620.616 170 C 622.213 153.941, 622.614 145.557, 622.411 132.500 C 622.291 124.800, 622.150 117.938, 622.096 117.250 C 622.043 116.563, 621.169 116, 620.153 116 C 618.415 116, 618.269 117.709, 617.662 145.250 M 655.671 123.250 C 653.868 127.237, 648.864 138.687, 644.552 148.694 C 636.712 166.888, 636.712 166.888, 646.937 196.694 C 652.560 213.087, 657.868 228.637, 658.732 231.250 C 659.853 234.636, 660.834 236, 662.152 236 C 663.168 236, 664 235.491, 664 234.869 C 664 234.247, 659.050 219.251, 653 201.545 C 646.950 183.838, 642 168.429, 642 167.302 C 642 166.175, 643.754 161.258, 645.898 156.376 C 656.320 132.646, 663 117.100, 663 116.577 C 663 116.260, 662.089 116, 660.975 116 C 659.429 116, 658.174 117.716, 655.671 123.250 M 484.724 119.374 C 477.675 120.930, 474.127 123.396, 471.500 128.565 C 469.615 132.274, 469.483 134.812, 469.197 172.838 C 468.858 218.004, 469.233 221.984, 474.334 227.392 C 478.318 231.617, 483.138 232.987, 494.038 232.994 C 508.268 233.004, 515.024 227.988, 516.659 216.200 C 517.697 208.720, 517.707 143.146, 516.672 135.800 C 516.230 132.666, 514.885 128.616, 513.683 126.800 C 509.244 120.098, 496.383 116.800, 484.724 119.374 M 369 176 C 369 232, 369 232, 383.318 232 C 410.427 232, 414.909 228.202, 415.778 204.500 C 416.395 187.692, 414.260 181.254, 406.789 177.391 C 403.756 175.822, 403.756 175.822, 407.278 179.345 C 412.455 184.521, 413.509 188.575, 413.444 203.067 C 413.395 214.323, 413.134 216.146, 410.944 220.550 C 407.044 228.394, 404.336 229.434, 386.750 229.842 C 372 230.183, 372 230.183, 372 176.092 C 372 122, 372 122, 384.851 122 C 391.919 122, 399.231 122.511, 401.101 123.136 C 405.654 124.658, 409.676 128.544, 411.222 132.915 C 412.926 137.733, 412.900 159.339, 411.184 164.200 C 409.956 167.679, 404.841 173.183, 401.847 174.247 C 401.106 174.511, 400.862 175.112, 401.304 175.584 C 401.749 176.058, 402.420 176.005, 402.804 175.465 C 403.187 174.928, 405.188 173.230, 407.251 171.693 C 413.718 166.872, 414.500 164.370, 414.500 148.500 C 414.500 132.758, 414.077 130.434, 410.425 126.094 C 406.491 121.418, 400.185 120, 383.318 120 C 369 120, 369 120, 369 176 M 484.120 121.093 C 478.906 122.684, 476.084 124.933, 473.692 129.403 C 471.536 133.433, 471.500 134.184, 471.500 175.500 C 471.500 217.037, 471.525 217.550, 473.750 222.066 C 477.150 228.964, 482.178 231.408, 493 231.421 C 503.683 231.434, 508.831 229.110, 512.237 222.737 C 514.486 218.526, 514.500 218.234, 514.500 176 C 514.500 133.500, 514.500 133.500, 512 129.084 C 508.665 123.192, 503.847 120.776, 494.635 120.373 C 490.711 120.202, 485.979 120.526, 484.120 121.093 M 121.336 162.250 C 121.700 184.938, 121.998 210.813, 121.999 219.750 C 122 235.730, 122.036 236, 124.158 236 C 126.317 236, 126.317 236, 125.728 180.500 C 125.139 125, 125.139 125, 132.601 125 C 137.710 125, 140.178 125.394, 140.427 126.250 C 141.290 129.212, 152 224.607, 152 229.329 C 152 229.698, 156.872 230, 162.828 230 C 173.656 230, 173.656 230, 174.874 217.250 C 177.270 192.174, 178.164 184.046, 182.988 143.500 C 183.511 139.100, 184.220 133.137, 184.564 130.250 C 185.188 125, 185.188 125, 193.126 125 C 201.065 125, 201.065 125, 200.368 145.250 C 199.984 156.387, 199.632 181.250, 199.585 200.500 C 199.500 235.500, 199.500 235.500, 201.750 235.820 C 204 236.139, 204 236.139, 204 205.732 C 204 189.008, 204.297 163.102, 204.661 148.162 C 205.321 121, 205.321 121, 193.629 121 C 185.187 121, 181.809 121.347, 181.478 122.250 C 180.640 124.529, 174.127 180.120, 171.960 203.500 C 170.787 216.150, 169.754 226.514, 169.664 226.531 C 169.574 226.549, 166.476 226.398, 162.780 226.197 C 154.831 225.765, 155.784 228.254, 153.517 202 C 152.686 192.375, 151.563 180.900, 151.021 176.500 C 149.338 162.833, 145.983 134.746, 145.406 129.500 C 144.408 120.434, 145.282 121, 132.270 121 C 120.675 121, 120.675 121, 121.336 162.250 M 312.518 122.250 C 312.287 122.938, 311.391 129.800, 310.526 137.500 C 308.434 156.129, 303.344 200.243, 301.988 211.500 C 301.392 216.450, 300.637 223.988, 300.309 228.250 C 299.738 235.691, 299.800 236, 301.857 236 C 303.036 236, 304.008 235.662, 304.017 235.250 C 304.029 234.724, 307.438 205.388, 307.968 201.250 C 308.052 200.597, 339 201.096, 339.001 201.750 C 339.004 203.219, 342.019 229.558, 342.550 232.750 C 342.945 235.124, 343.618 236, 345.045 236 C 346.441 236, 347 235.315, 347 233.606 C 347 231.448, 344.522 209.196, 340.473 175 C 339.659 168.125, 338.085 154.175, 336.976 144 C 335.867 133.825, 334.735 124.487, 334.461 123.250 C 333.982 121.091, 333.537 121, 323.450 121 C 315.930 121, 312.818 121.356, 312.518 122.250 M 543 179.070 C 543 236.139, 543 236.139, 545.250 235.820 C 547.500 235.500, 547.500 235.500, 547.768 211.214 C 548.036 186.928, 548.036 186.928, 557.686 187.214 C 567.335 187.500, 567.335 187.500, 572.515 206 C 581.220 237.092, 580.838 236, 583.028 236 C 584.113 236, 585 235.481, 585 234.846 C 585 234.212, 582.040 223.147, 578.422 210.258 C 574.803 197.369, 571.991 186.751, 572.172 186.662 C 584.468 180.606, 584.500 180.523, 584.500 154.500 C 584.500 130.223, 583.953 128.273, 576.015 124.250 C 572.028 122.229, 570.123 122, 557.288 122 C 543 122, 543 122, 543 179.070 M 483.406 125.849 C 476.111 129.258, 476 130.016, 476.002 176.270 C 476.003 212.595, 476.173 216.833, 477.752 219.929 C 480.712 225.734, 484.111 227.500, 492.323 227.500 C 500.565 227.500, 505.179 225.902, 507.598 222.210 C 510.145 218.323, 511.293 196.353, 510.680 163.241 C 510.100 131.906, 509.533 128.972, 503.500 126.044 C 498.665 123.698, 488.227 123.597, 483.406 125.849 M 315.992 126.250 C 315.988 126.938, 315.535 131.325, 314.986 136 C 314.436 140.675, 312.869 154.850, 311.503 167.500 C 310.138 180.150, 308.819 191.963, 308.573 193.750 C 308.126 197, 308.126 197, 323.206 197 C 340.120 197, 338.732 199.378, 336.043 175 C 333.488 151.843, 333.039 147.780, 332.011 138.500 C 330.414 124.092, 331.024 125, 322.933 125 C 318.057 125, 315.998 125.371, 315.992 126.250 M 376 149.586 C 376 173.172, 376 173.172, 387.430 172.836 C 397.086 172.552, 399.299 172.178, 401.680 170.429 C 406.887 166.604, 407.997 162.839, 407.997 149 C 407.997 128.838, 405.379 126.004, 386.750 126.002 C 376 126, 376 126, 376 149.586 M 485.096 127.265 C 483.774 127.944, 481.749 129.770, 480.596 131.322 C 478.565 134.057, 478.491 135.351, 478.198 173.322 C 477.874 215.309, 478.203 218.963, 482.691 223.179 C 484.840 225.198, 486.177 225.500, 492.976 225.500 C 501.703 225.500, 504.125 224.221, 506.638 218.282 C 508.637 213.560, 508.622 138.423, 506.621 133.636 C 504.326 128.144, 500.664 125.998, 493.615 126.015 C 490.252 126.023, 486.418 126.585, 485.096 127.265 M 548 154.605 C 548 183.211, 548 183.211, 559.750 182.818 C 572.839 182.381, 577.252 180.882, 579.225 176.202 C 579.936 174.516, 580.374 166.543, 580.388 155 C 580.423 127.440, 579.362 126, 559.032 126 C 548 126, 548 126, 548 154.605 M 127.355 144.250 C 127.702 153.738, 128.280 178.262, 128.640 198.750 C 129.279 235.119, 129.342 236, 131.295 236 C 133.275 236, 133.289 235.560, 132.627 192.250 C 132.260 168.188, 131.687 144.563, 131.354 139.750 C 130.774 131.360, 130.835 131, 132.829 131 C 134.395 131, 135.047 131.804, 135.468 134.250 C 136.614 140.928, 141.883 191.349, 144.010 216 C 145.935 238.302, 143.823 236.087, 162.867 235.774 C 179.500 235.500, 179.500 235.500, 180.615 226 C 181.229 220.775, 182.254 210.200, 182.893 202.500 C 183.533 194.800, 184.508 184.450, 185.060 179.500 C 188.687 146.984, 190 134.606, 190 132.921 C 190 131.596, 190.698 131, 192.250 130.999 C 194.500 130.998, 194.500 130.998, 193.333 161.249 C 192.043 194.712, 191.698 230.271, 192.630 233.750 C 192.962 234.988, 194.011 236, 194.962 236 C 196.566 236, 196.739 232.713, 197.354 190.750 C 197.719 165.863, 198.301 141.338, 198.647 136.250 C 199.277 127, 199.277 127, 193.158 127 C 186.247 127, 186.654 126.442, 185.500 137.500 C 184.313 148.880, 183.133 159.555, 181.134 177 C 180.032 186.625, 178.351 202.938, 177.399 213.250 C 175.669 232, 175.669 232, 162.834 232 C 153.235 232, 149.999 231.685, 149.997 230.750 C 149.996 230.063, 149.572 225.675, 149.056 221 C 148.539 216.325, 147.607 207.325, 146.984 201 C 146.360 194.675, 145.178 183.425, 144.356 176 C 143.534 168.575, 142.447 158.675, 141.940 154 C 141.433 149.325, 140.568 141.675, 140.017 137 C 139.466 132.325, 139.012 128.162, 139.008 127.750 C 139.003 127.338, 136.238 127, 132.862 127 C 126.723 127, 126.723 127, 127.355 144.250 M 317.552 128.250 C 317.340 128.938, 316.927 132.650, 316.635 136.500 C 315.979 145.158, 313.353 171.558, 312.004 183.068 C 311.452 187.780, 311 192.392, 311 193.318 C 311 194.805, 312.461 195, 323.611 195 C 336.223 195, 336.223 195, 335.666 191.750 C 335.360 189.963, 334.850 185.575, 334.533 182 C 333.399 169.210, 330.342 139.015, 329.395 131.250 C 328.877 127, 328.877 127, 323.407 127 C 319.903 127, 317.799 127.449, 317.552 128.250 M 378 149.500 C 378 171, 378 171, 387.050 171 C 402.478 171, 405.158 168.099, 405.817 150.689 C 406.539 131.584, 403.661 128, 387.596 128 C 378 128, 378 128, 378 149.500 M 550 154.588 C 550 181.177, 550 181.177, 560.980 180.838 C 571.433 180.516, 572.092 180.367, 574.730 177.730 C 577.500 174.960, 577.500 174.960, 577.825 157.230 C 578.327 129.839, 577.229 128, 560.365 128 C 550 128, 550 128, 550 154.588 M 485.444 132.062 C 483.981 133.678, 483.336 136.349, 482.837 142.855 C 481.876 155.387, 481.943 202.247, 482.934 210.799 C 484.075 220.651, 485.520 222.177, 493.341 221.793 C 498.542 221.537, 499.561 221.143, 501.398 218.677 C 503.452 215.918, 503.500 214.938, 503.500 176 C 503.500 137.062, 503.452 136.082, 501.398 133.323 C 499.561 130.857, 498.542 130.463, 493.341 130.207 C 488.301 129.960, 487.089 130.244, 485.444 132.062 M 320.995 132.750 C 320.992 133.713, 320.123 143.500, 319.064 154.500 C 315.174 194.881, 314.713 191, 323.403 191 C 331.014 191, 331.014 191, 330.445 183.750 C 330.132 179.762, 329.483 172.675, 329.003 168 C 328.523 163.325, 327.560 153.088, 326.863 145.250 C 325.632 131.420, 325.527 131, 323.297 131 C 321.778 131, 320.998 131.593, 320.995 132.750 M 383 149.500 C 383 167, 383 167, 389.389 167 C 394.186 167, 396.367 166.524, 398.139 165.091 C 400.363 163.292, 400.519 162.436, 400.825 150.321 C 401.126 138.411, 400.991 137.258, 399.002 134.730 C 397.033 132.226, 396.281 132, 389.927 132 C 383 132, 383 132, 383 149.500 M 554 154.606 C 554 177.212, 554 177.212, 561.970 176.850 C 573.805 176.312, 573.506 176.898, 573.473 154.353 C 573.447 136.116, 573.405 135.746, 571.113 133.890 C 569.294 132.418, 567.145 132, 561.389 132 C 554 132, 554 132, 554 154.606 M 376 201.374 C 376 226, 376 226, 386.480 226 C 398.361 226, 403.794 224.432, 406.691 220.165 C 408.238 217.886, 408.500 215.325, 408.500 202.500 C 408.500 180.070, 406.740 177.974, 387.250 177.197 C 376 176.748, 376 176.748, 376 201.374 M 240 207.500 C 240 235.113, 240.061 236, 241.955 236 C 244.819 236, 245.141 232.631, 244.800 206.249 C 244.500 182.998, 244.500 182.998, 254.250 182.999 C 264 183, 264 183, 264 209.500 C 264 235.333, 264.050 236, 266 236 C 267.953 236, 268 235.333, 268 207.500 C 268 179, 268 179, 254 179 C 240 179, 240 179, 240 207.500 M 378.667 179.667 C 378.300 180.033, 378 190.198, 378 202.255 C 378 224.177, 378 224.177, 389.084 223.838 C 400.089 223.502, 400.188 223.477, 402.990 220.339 C 405.362 217.683, 405.928 215.944, 406.537 209.449 C 408.119 192.561, 405.543 183.378, 398.383 180.387 C 395.013 178.979, 379.906 178.427, 378.667 179.667 M 32.219 194.839 C 25.938 209.643, 25.938 209.643, 26.219 222.571 C 26.492 235.120, 26.566 235.509, 28.750 235.820 C 30.989 236.138, 31 236.073, 31 222.476 C 31 208.943, 31.035 208.730, 34.737 199.956 C 36.803 195.060, 38.768 191.635, 39.130 192.299 C 39.490 192.959, 43.042 203.063, 47.024 214.750 C 52.986 232.252, 54.592 236, 56.131 236 C 57.159 236, 58 235.663, 58 235.250 C 58 233.468, 39.769 180.002, 39.167 180.018 C 38.800 180.028, 35.673 186.697, 32.219 194.839 M 624.164 194.592 C 618 209.183, 618 209.183, 618 222.592 C 618 235.333, 618.099 236, 620 236 C 621.897 236, 622 235.333, 622 223.072 C 622 210.144, 622 210.144, 626.136 200.541 C 628.410 195.259, 630.450 191.117, 630.669 191.335 C 630.887 191.554, 634.350 201.581, 638.364 213.616 C 644.874 233.136, 645.912 235.537, 647.972 235.838 C 649.551 236.069, 650.141 235.753, 649.836 234.838 C 636.856 195.863, 631.385 180.006, 630.914 180.003 C 630.592 180.001, 627.555 186.566, 624.164 194.592 M 383 201.387 C 383 220, 383 220, 390.045 220 C 396.251 220, 397.393 219.698, 399.622 217.469 C 402.117 214.973, 402.149 214.744, 401.827 201.493 C 401.419 184.716, 400.816 183.781, 390.005 183.170 C 383 182.774, 383 182.774, 383 201.387 M 550 212.500 C 550 235.333, 550.057 236, 552 236 C 553.938 236, 554 235.333, 554 214.443 C 554 192.885, 554 192.885, 558.186 193.193 C 562.372 193.500, 562.372 193.500, 568.047 214.500 C 573.192 233.538, 573.934 235.531, 575.991 235.837 C 578.703 236.239, 579.095 238.377, 571.213 209.760 C 565.500 189.020, 565.500 189.020, 557.750 189.010 C 550 189, 550 189, 550 212.500 M 310.462 203.250 C 309.669 205.333, 306.244 234.445, 306.696 235.250 C 306.928 235.662, 307.918 236, 308.897 236 C 310.432 236, 310.840 234.394, 311.880 224.250 C 313.969 203.883, 312.625 206, 323.466 206 C 332.841 206, 332.841 206, 333.483 212.750 C 333.836 216.463, 334.547 222.795, 335.063 226.822 C 335.578 230.850, 336 234.562, 336 235.072 C 336 235.583, 336.965 236, 338.145 236 C 340.175 236, 340.256 235.668, 339.664 229.750 C 338.306 216.183, 336.901 204.439, 336.492 203.250 C 336.179 202.339, 332.654 202, 323.500 202 C 314.370 202, 310.807 202.342, 310.462 203.250"
    stroke="none" fill="#f1f1f1" fill-rule="evenodd" />
</svg>